<svg xmlns="http://www.w3.org/2000/svg" version="1.1" xmlns:xlink="http://www.w3.org/1999/xlink" xmlns:svgjs="http://svgjs.dev/svgjs" width="1000" height="1000" viewBox="0 0 1000 1000"><rect width="1000" height="1000" fill="#ffffff"></rect><g transform="matrix(0.7,0,0,0.7,149.57576690128207,383.24535168252334)"><svg viewBox="0 0 396 132" data-background-color="#0c1d36" preserveAspectRatio="xMidYMid meet" height="333" width="1000" xmlns="http://www.w3.org/2000/svg" xmlns:xlink="http://www.w3.org/1999/xlink"><g id="tight-bounds" transform="matrix(1,0,0,1,0.23999472441755643,0.11589204083517757)"><svg viewBox="0 0 395.52 131.76821959405578" height="131.76821959405578" width="395.52"><g><svg viewBox="0 0 395.52 131.76821959405578" height="131.76821959405578" width="395.52"><g transform="matrix(1,0,0,1,0,79.25686451570405)"><svg viewBox="0 0 395.52 52.51135507835171" height="52.51135507835171" width="395.52"><g><svg viewBox="0 0 395.52 52.51135507835171" height="52.51135507835171" width="395.52"><g><svg viewBox="0 0 395.52 28.322115748411452" height="28.322115748411452" width="395.52"><g transform="matrix(1,0,0,1,0,0)"><svg width="395.52" viewBox="4.5 -39.04999923706055 549.1099853515625 39.29999923706055" height="28.322115748411452" data-palette-color="#f9cc0b"><path d="M41.45 0L41.45 0Q40.6 0 40.05-0.53 39.5-1.05 39.5-1.9L39.5-1.9 39.5-16.3Q39.5-19.85 37.65-21.93 35.8-24 32.9-24L32.9-24Q29.8-24 27.83-21.93 25.85-19.85 25.9-16.4L25.9-16.4 22.45-16.4Q22.5-19.75 23.9-22.3 25.3-24.85 27.75-26.25 30.2-27.65 33.3-27.65L33.3-27.65Q36.25-27.65 38.53-26.25 40.8-24.85 42.08-22.3 43.35-19.75 43.35-16.3L43.35-16.3 43.35-1.9Q43.35-1.05 42.83-0.53 42.3 0 41.45 0ZM6.45 0L6.45 0Q5.55 0 5.03-0.53 4.5-1.05 4.5-1.9L4.5-1.9 4.5-25.4Q4.5-26.25 5.03-26.8 5.55-27.35 6.45-27.35L6.45-27.35Q7.3-27.35 7.83-26.8 8.35-26.25 8.35-25.4L8.35-25.4 8.35-1.9Q8.35-1.05 7.83-0.53 7.3 0 6.45 0ZM24 0L24 0Q23.15 0 22.6-0.53 22.05-1.05 22.05-1.9L22.05-1.9 22.05-16.3Q22.05-19.85 20.2-21.93 18.35-24 15.45-24L15.45-24Q12.35-24 10.35-21.98 8.35-19.95 8.35-16.7L8.35-16.7 5.6-16.7Q5.7-19.9 7.03-22.38 8.35-24.85 10.65-26.25 12.95-27.65 15.85-27.65L15.85-27.65Q18.8-27.65 21.08-26.25 23.35-24.85 24.63-22.3 25.9-19.75 25.9-16.3L25.9-16.3 25.9-1.9Q25.9-1.05 25.38-0.53 24.85 0 24 0ZM63.9 0.25L63.9 0.25Q60.05 0.25 57-1.58 53.95-3.4 52.17-6.55 50.4-9.7 50.4-13.65L50.4-13.65Q50.4-17.65 52.22-20.8 54.05-23.95 57.2-25.78 60.35-27.6 64.3-27.6L64.3-27.6Q68.25-27.6 71.37-25.78 74.5-23.95 76.32-20.8 78.15-17.65 78.2-13.65L78.2-13.65 76.65-12.45Q76.65-8.85 74.97-5.98 73.3-3.1 70.42-1.43 67.55 0.25 63.9 0.25ZM64.3-3.25L64.3-3.25Q67.2-3.25 69.47-4.6 71.75-5.95 73.07-8.33 74.4-10.7 74.4-13.65L74.4-13.65Q74.4-16.65 73.07-19 71.75-21.35 69.47-22.73 67.2-24.1 64.3-24.1L64.3-24.1Q61.45-24.1 59.15-22.73 56.85-21.35 55.5-19 54.15-16.65 54.15-13.65L54.15-13.65Q54.15-10.7 55.5-8.33 56.85-5.95 59.15-4.6 61.45-3.25 64.3-3.25ZM76.25 0L76.25 0Q75.4 0 74.85-0.53 74.3-1.05 74.3-1.9L74.3-1.9 74.3-10.45 75.25-14.4 78.2-13.65 78.2-1.9Q78.2-1.05 77.65-0.53 77.1 0 76.25 0ZM89.5-16.85L87.3-16.85Q87.45-19.95 88.92-22.4 90.4-24.85 92.77-26.25 95.15-27.65 98.05-27.65L98.05-27.65Q100.35-27.65 101.6-27 102.85-26.35 102.55-25.1L102.55-25.1Q102.35-24.35 101.87-24.1 101.4-23.85 100.72-23.9 100.05-23.95 99.2-24L99.2-24Q96.4-24.25 94.22-23.43 92.05-22.6 90.77-20.9 89.5-19.2 89.5-16.85L89.5-16.85ZM87.6 0L87.6 0Q86.7 0 86.2-0.5 85.7-1 85.7-1.9L85.7-1.9 85.7-25.45Q85.7-26.35 86.2-26.85 86.7-27.35 87.6-27.35L87.6-27.35Q88.5-27.35 89-26.85 89.5-26.35 89.5-25.45L89.5-25.45 89.5-1.9Q89.5-1 89-0.5 88.5 0 87.6 0ZM128.84-24.6L111.74-9.15 109.39-11.7 126.49-27.15Q127.09-27.7 127.74-27.68 128.39-27.65 128.94-27.05L128.94-27.05Q129.49-26.45 129.47-25.78 129.44-25.1 128.84-24.6L128.84-24.6ZM110.49 0L110.49 0Q109.64 0 109.12-0.53 108.59-1.05 108.59-1.9L108.59-1.9 108.59-37.15Q108.59-38 109.12-38.53 109.64-39.05 110.49-39.05L110.49-39.05Q111.34-39.05 111.87-38.53 112.39-38 112.39-37.15L112.39-37.15 112.39-1.9Q112.39-1.05 111.87-0.53 111.34 0 110.49 0ZM128.99-0.25L128.99-0.25Q128.34 0.3 127.64 0.23 126.94 0.15 126.44-0.5L126.44-0.5 115.29-14.2 117.99-16.6 129.24-2.75Q129.74-2.15 129.69-1.48 129.64-0.8 128.99-0.25ZM147.14 0.25L147.14 0.25Q143.19 0.25 140.04-1.58 136.89-3.4 135.07-6.55 133.24-9.7 133.24-13.7L133.24-13.7Q133.24-17.65 135.02-20.8 136.79-23.95 139.84-25.78 142.89-27.6 146.74-27.6L146.74-27.6Q150.09-27.6 152.79-26.18 155.49-24.75 157.14-22.4L157.14-22.4 157.14-37.1Q157.14-38 157.69-38.53 158.24-39.05 159.09-39.05L159.09-39.05Q159.94-39.05 160.49-38.53 161.04-38 161.04-37.1L161.04-37.1 161.04-13.5Q160.94-9.6 159.12-6.48 157.29-3.35 154.17-1.55 151.04 0.25 147.14 0.25ZM147.14-3.25L147.14-3.25Q150.04-3.25 152.32-4.63 154.59-6 155.92-8.35 157.24-10.7 157.24-13.7L157.24-13.7Q157.24-16.65 155.92-19.03 154.59-21.4 152.32-22.75 150.04-24.1 147.14-24.1L147.14-24.1Q144.29-24.1 141.99-22.75 139.69-21.4 138.34-19.03 136.99-16.65 136.99-13.7L136.99-13.7Q136.99-10.7 138.34-8.35 139.69-6 141.99-4.63 144.29-3.25 147.14-3.25ZM182.49 0.25L182.49 0.25Q178.49 0.25 175.34-1.55 172.19-3.35 170.39-6.5 168.59-9.65 168.59-13.65L168.59-13.65Q168.59-17.7 170.39-20.85 172.19-24 175.34-25.8 178.49-27.6 182.49-27.6L182.49-27.6Q186.49-27.6 189.61-25.8 192.74-24 194.54-20.85 196.34-17.7 196.39-13.65L196.39-13.65Q196.39-9.65 194.56-6.5 192.74-3.35 189.61-1.55 186.49 0.25 182.49 0.25ZM182.49-3.25L182.49-3.25Q185.39-3.25 187.69-4.6 189.99-5.95 191.29-8.3 192.59-10.65 192.59-13.65L192.59-13.65Q192.59-16.65 191.29-19.03 189.99-21.4 187.69-22.75 185.39-24.1 182.49-24.1L182.49-24.1Q179.59-24.1 177.29-22.75 174.99-21.4 173.66-19.03 172.34-16.65 172.34-13.65L172.34-13.65Q172.34-10.65 173.66-8.3 174.99-5.95 177.29-4.6 179.59-3.25 182.49-3.25ZM208.59 0L208.59 0Q207.94 0 207.44-0.35 206.94-0.7 206.74-1.25L206.74-1.25 198.94-24.65Q198.64-25.9 198.99-26.63 199.34-27.35 200.39-27.35L200.39-27.35Q201.04-27.35 201.54-27 202.04-26.65 202.29-25.9L202.29-25.9 209.24-4.65 208.14-4.65 214.59-25.85Q214.79-26.5 215.26-26.93 215.74-27.35 216.49-27.35L216.49-27.35Q217.24-27.35 217.71-26.95 218.19-26.55 218.39-25.85L218.39-25.85 224.54-5.15 223.69-5.15 230.49-25.9Q230.99-27.35 232.34-27.35L232.34-27.35Q233.44-27.35 233.84-26.53 234.24-25.7 233.84-24.65L233.84-24.65 226.04-1.25Q225.84-0.7 225.36-0.35 224.89 0 224.24 0L224.24 0Q223.59 0 223.06-0.35 222.54-0.7 222.39-1.25L222.39-1.25 216.09-22.15 216.69-22.15 210.39-1.25Q210.19-0.65 209.69-0.33 209.19 0 208.59 0ZM262.83 0L262.83 0Q261.98 0 261.43-0.55 260.88-1.1 260.88-1.9L260.88-1.9 260.88-14.9Q260.88-18 259.71-20 258.53-22 256.51-23 254.48-24 251.93-24L251.93-24Q249.48-24 247.51-23.05 245.53-22.1 244.38-20.45 243.23-18.8 243.23-16.7L243.23-16.7 240.48-16.7Q240.58-19.85 242.18-22.33 243.78-24.8 246.43-26.23 249.08-27.65 252.33-27.65L252.33-27.65Q255.88-27.65 258.68-26.18 261.48-24.7 263.11-21.85 264.73-19 264.73-14.9L264.73-14.9 264.73-1.9Q264.73-1.1 264.18-0.55 263.63 0 262.83 0ZM241.33 0L241.33 0Q240.43 0 239.91-0.53 239.38-1.05 239.38-1.9L239.38-1.9 239.38-25.4Q239.38-26.3 239.91-26.83 240.43-27.35 241.33-27.35L241.33-27.35Q242.18-27.35 242.71-26.83 243.23-26.3 243.23-25.4L243.23-25.4 243.23-1.9Q243.23-1.05 242.71-0.53 242.18 0 241.33 0ZM291.28 0L291.28 0Q290.53 0 289.98-0.53 289.43-1.05 289.43-1.95L289.43-1.95 289.43-27.3Q289.43-30.8 290.63-33.45 291.83-36.1 294.18-37.58 296.53-39.05 299.93-39.05L299.93-39.05Q300.78-39.05 301.33-38.55 301.88-38.05 301.88-37.3L301.88-37.3Q301.88-36.55 301.33-36.05 300.78-35.55 299.93-35.55L299.93-35.55Q297.68-35.55 296.2-34.52 294.73-33.5 294-31.68 293.28-29.85 293.28-27.5L293.28-27.5 293.28-1.95Q293.28-1.05 292.75-0.53 292.23 0 291.28 0ZM299.28-23L286.23-23Q285.43-23 284.95-23.48 284.48-23.95 284.48-24.65L284.48-24.65Q284.48-25.4 284.95-25.88 285.43-26.35 286.23-26.35L286.23-26.35 299.28-26.35Q300.08-26.35 300.55-25.88 301.03-25.4 301.03-24.65L301.03-24.65Q301.03-23.95 300.55-23.48 300.08-23 299.28-23L299.28-23ZM312.73 0L312.07 0Q310.07 0 308.5-1.1 306.93-2.2 306.05-4.15 305.18-6.1 305.18-8.65L305.18-8.65 305.18-37.15Q305.18-38 305.7-38.53 306.23-39.05 307.07-39.05L307.07-39.05Q307.93-39.05 308.45-38.53 308.98-38 308.98-37.15L308.98-37.15 308.98-8.65Q308.98-6.5 309.85-5.15 310.73-3.8 312.07-3.8L312.07-3.8 313.32-3.8Q314.07-3.8 314.53-3.28 314.98-2.75 314.98-1.9L314.98-1.9Q314.98-1.05 314.35-0.53 313.73 0 312.73 0L312.73 0ZM330.82 0.25L330.82 0.25Q326.97 0.25 323.92-1.58 320.87-3.4 319.1-6.55 317.32-9.7 317.32-13.65L317.32-13.65Q317.32-17.65 319.15-20.8 320.97-23.95 324.12-25.78 327.27-27.6 331.22-27.6L331.22-27.6Q335.17-27.6 338.3-25.78 341.42-23.95 343.25-20.8 345.07-17.65 345.12-13.65L345.12-13.65 343.57-12.45Q343.57-8.85 341.9-5.98 340.22-3.1 337.35-1.43 334.47 0.25 330.82 0.25ZM331.22-3.25L331.22-3.25Q334.12-3.25 336.4-4.6 338.67-5.95 340-8.33 341.32-10.7 341.32-13.65L341.32-13.65Q341.32-16.65 340-19 338.67-21.35 336.4-22.73 334.12-24.1 331.22-24.1L331.22-24.1Q328.37-24.1 326.07-22.73 323.77-21.35 322.42-19 321.07-16.65 321.07-13.65L321.07-13.65Q321.07-10.7 322.42-8.33 323.77-5.95 326.07-4.6 328.37-3.25 331.22-3.25ZM343.17 0L343.17 0Q342.32 0 341.77-0.53 341.22-1.05 341.22-1.9L341.22-1.9 341.22-10.45 342.17-14.4 345.12-13.65 345.12-1.9Q345.12-1.05 344.57-0.53 344.02 0 343.17 0ZM362.17 0.25L362.17 0.25Q359.22 0.25 356.32-0.75 353.42-1.75 351.62-3.75L351.62-3.75Q351.07-4.35 351.17-5.1 351.27-5.85 351.92-6.4L351.92-6.4Q352.62-6.9 353.37-6.8 354.12-6.7 354.62-6.15L354.62-6.15Q355.82-4.75 357.8-4 359.77-3.25 362.17-3.25L362.17-3.25Q365.87-3.25 367.52-4.53 369.17-5.8 369.22-7.6L369.22-7.6Q369.22-9.4 367.52-10.58 365.82-11.75 361.92-12.4L361.92-12.4Q356.87-13.2 354.52-15.2 352.17-17.2 352.17-19.95L352.17-19.95Q352.17-22.5 353.52-24.2 354.87-25.9 357.12-26.75 359.37-27.6 362.07-27.6L362.07-27.6Q365.42-27.6 367.85-26.45 370.27-25.3 371.77-23.35L371.77-23.35Q372.27-22.7 372.17-22 372.07-21.3 371.37-20.85L371.37-20.85Q370.77-20.5 370-20.63 369.22-20.75 368.67-21.35L368.67-21.35Q367.42-22.8 365.77-23.48 364.12-24.15 361.97-24.15L361.97-24.15Q359.22-24.15 357.57-23.03 355.92-21.9 355.92-20.2L355.92-20.2Q355.92-19.05 356.55-18.2 357.17-17.35 358.7-16.7 360.22-16.05 362.97-15.6L362.97-15.6Q366.72-15 368.9-13.83 371.07-12.65 372-11.08 372.92-9.5 372.92-7.65L372.92-7.65Q372.92-5.3 371.55-3.53 370.17-1.75 367.75-0.75 365.32 0.25 362.17 0.25ZM403.02 0L403.02 0Q402.17 0 401.62-0.55 401.07-1.1 401.07-1.9L401.07-1.9 401.07-14.9Q401.07-18 399.89-20 398.72-22 396.69-23 394.67-24 392.12-24L392.12-24Q389.67-24 387.69-23.05 385.72-22.1 384.57-20.45 383.42-18.8 383.42-16.7L383.42-16.7 380.67-16.7Q380.77-19.85 382.37-22.33 383.97-24.8 386.62-26.23 389.27-27.65 392.52-27.65L392.52-27.65Q396.07-27.65 398.87-26.18 401.67-24.7 403.29-21.85 404.92-19 404.92-14.9L404.92-14.9 404.92-1.9Q404.92-1.1 404.37-0.55 403.82 0 403.02 0ZM381.52 0L381.52 0Q380.62 0 380.09-0.53 379.57-1.05 379.57-1.9L379.57-1.9 379.57-25.4Q379.57-26.3 380.09-26.83 380.62-27.35 381.52-27.35L381.52-27.35Q382.37-27.35 382.89-26.83 383.42-26.3 383.42-25.4L383.42-25.4 383.42-1.9Q383.42-1.05 382.89-0.53 382.37 0 381.52 0ZM381.52-11.15L381.52-11.15Q380.62-11.15 380.09-11.7 379.57-12.25 379.57-13.1L379.57-13.1 379.57-37.1Q379.57-38 380.09-38.53 380.62-39.05 381.52-39.05L381.52-39.05Q382.37-39.05 382.89-38.53 383.42-38 383.42-37.1L383.42-37.1 383.42-13.1Q383.42-12.25 382.89-11.7 382.37-11.15 381.52-11.15ZM425.62 0.25L425.62 0.25Q421.67 0.25 418.59-1.58 415.52-3.4 413.74-6.55 411.97-9.7 411.97-13.65L411.97-13.65Q411.97-17.65 413.67-20.8 415.37-23.95 418.32-25.78 421.27-27.6 425.12-27.6L425.12-27.6Q428.17-27.6 430.74-26.4 433.32-25.2 435.27-22.8L435.27-22.8Q435.82-22.2 435.67-21.53 435.52-20.85 434.82-20.35L434.82-20.35Q434.27-19.95 433.59-20.08 432.92-20.2 432.42-20.8L432.42-20.8Q429.52-24.1 425.12-24.1L425.12-24.1Q422.32-24.1 420.19-22.75 418.07-21.4 416.89-19.05 415.72-16.7 415.72-13.65L415.72-13.65Q415.72-10.65 416.97-8.3 418.22-5.95 420.47-4.6 422.72-3.25 425.62-3.25L425.62-3.25Q427.57-3.25 429.19-3.78 430.82-4.3 432.07-5.4L432.07-5.4Q432.67-5.9 433.32-5.95 433.97-6 434.52-5.55L434.52-5.55Q435.12-5 435.19-4.3 435.27-3.6 434.72-3.1L434.72-3.1Q431.07 0.25 425.62 0.25ZM455.26 0.25L455.26 0.25Q451.41 0.25 448.36-1.58 445.31-3.4 443.54-6.55 441.76-9.7 441.76-13.65L441.76-13.65Q441.76-17.65 443.59-20.8 445.41-23.95 448.56-25.78 451.71-27.6 455.66-27.6L455.66-27.6Q459.61-27.6 462.74-25.78 465.86-23.95 467.69-20.8 469.51-17.65 469.56-13.65L469.56-13.65 468.01-12.45Q468.01-8.85 466.34-5.98 464.66-3.1 461.79-1.43 458.91 0.25 455.26 0.25ZM455.66-3.25L455.66-3.25Q458.56-3.25 460.84-4.6 463.11-5.95 464.44-8.33 465.76-10.7 465.76-13.65L465.76-13.65Q465.76-16.65 464.44-19 463.11-21.35 460.84-22.73 458.56-24.1 455.66-24.1L455.66-24.1Q452.81-24.1 450.51-22.73 448.21-21.35 446.86-19 445.51-16.65 445.51-13.65L445.51-13.65Q445.51-10.7 446.86-8.33 448.21-5.95 450.51-4.6 452.81-3.25 455.66-3.25ZM467.61 0L467.61 0Q466.76 0 466.21-0.53 465.66-1.05 465.66-1.9L465.66-1.9 465.66-10.45 466.61-14.4 469.56-13.65 469.56-1.9Q469.56-1.05 469.01-0.53 468.46 0 467.61 0ZM480.86-16.85L478.66-16.85Q478.81-19.95 480.29-22.4 481.76-24.85 484.14-26.25 486.51-27.65 489.41-27.65L489.41-27.65Q491.71-27.65 492.96-27 494.21-26.35 493.91-25.1L493.91-25.1Q493.71-24.35 493.24-24.1 492.76-23.85 492.09-23.9 491.41-23.95 490.56-24L490.56-24Q487.76-24.25 485.59-23.43 483.41-22.6 482.14-20.9 480.86-19.2 480.86-16.85L480.86-16.85ZM478.96 0L478.96 0Q478.06 0 477.56-0.5 477.06-1 477.06-1.9L477.06-1.9 477.06-25.45Q477.06-26.35 477.56-26.85 478.06-27.35 478.96-27.35L478.96-27.35Q479.86-27.35 480.36-26.85 480.86-26.35 480.86-25.45L480.86-25.45 480.86-1.9Q480.86-1 480.36-0.5 479.86 0 478.96 0ZM510.41 0.25L510.41 0.25Q506.46 0.25 503.31-1.58 500.16-3.4 498.33-6.55 496.51-9.7 496.51-13.7L496.51-13.7Q496.51-17.65 498.28-20.8 500.06-23.95 503.11-25.78 506.16-27.6 510.01-27.6L510.01-27.6Q513.36-27.6 516.06-26.18 518.76-24.75 520.41-22.4L520.41-22.4 520.41-37.1Q520.41-38 520.96-38.53 521.51-39.05 522.36-39.05L522.36-39.05Q523.21-39.05 523.76-38.53 524.31-38 524.31-37.1L524.31-37.1 524.31-13.5Q524.21-9.6 522.38-6.48 520.56-3.35 517.43-1.55 514.31 0.25 510.41 0.25ZM510.41-3.25L510.41-3.25Q513.31-3.25 515.58-4.63 517.86-6 519.18-8.35 520.51-10.7 520.51-13.7L520.51-13.7Q520.51-16.65 519.18-19.03 517.86-21.4 515.58-22.75 513.31-24.1 510.41-24.1L510.41-24.1Q507.56-24.1 505.26-22.75 502.96-21.4 501.61-19.03 500.26-16.65 500.26-13.7L500.26-13.7Q500.26-10.7 501.61-8.35 502.96-6 505.26-4.63 507.56-3.25 510.41-3.25ZM542.86 0.25L542.86 0.25Q539.91 0.25 537.01-0.75 534.11-1.75 532.31-3.75L532.31-3.75Q531.76-4.35 531.86-5.1 531.96-5.85 532.61-6.4L532.61-6.4Q533.31-6.9 534.06-6.8 534.81-6.7 535.31-6.15L535.31-6.15Q536.51-4.75 538.48-4 540.46-3.25 542.86-3.25L542.86-3.25Q546.56-3.25 548.21-4.53 549.86-5.8 549.91-7.6L549.91-7.6Q549.91-9.4 548.21-10.58 546.51-11.75 542.61-12.4L542.61-12.4Q537.56-13.2 535.21-15.2 532.86-17.2 532.86-19.95L532.86-19.95Q532.86-22.5 534.21-24.2 535.56-25.9 537.81-26.75 540.06-27.6 542.76-27.6L542.76-27.6Q546.11-27.6 548.53-26.45 550.96-25.3 552.46-23.35L552.46-23.35Q552.96-22.7 552.86-22 552.76-21.3 552.06-20.85L552.06-20.85Q551.46-20.5 550.68-20.63 549.91-20.75 549.36-21.35L549.36-21.35Q548.11-22.8 546.46-23.48 544.81-24.15 542.66-24.15L542.66-24.15Q539.91-24.15 538.26-23.03 536.61-21.9 536.61-20.2L536.61-20.2Q536.61-19.05 537.23-18.2 537.86-17.35 539.38-16.7 540.91-16.05 543.66-15.6L543.66-15.6Q547.41-15 549.58-13.83 551.76-12.65 552.68-11.08 553.61-9.5 553.61-7.65L553.61-7.65Q553.61-5.3 552.23-3.53 550.86-1.75 548.43-0.75 546.01 0.25 542.86 0.25Z" opacity="1" transform="matrix(1,0,0,1,0,0)" fill="#000000" class="undefined-text-0" data-fill-palette-color="primary" id="text-0"></path></svg></g></svg></g><g transform="matrix(1,0,0,1,148.57638023362364,35.00828754583343)"><svg viewBox="0 0 98.36723953275272 17.503067532518276" height="17.503067532518276" width="98.36723953275272"><g transform="matrix(1,0,0,1,0,0)"><svg width="98.36723953275272" viewBox="-10.399999618530273 -37.5 280.9700012207031 50" height="17.503067532518276" data-palette-color="#f9cc0b"><path d="M13.35-37.45L13.35-37.45Q15.8-37.45 17.53-35.9 19.25-34.35 19.25-32.05L19.25-32.05Q19.25-31.45 19.23-30.95 19.2-30.45 19.1-30L19.1-30 16.75-30Q16.85-30.8 16.85-30.98 16.85-31.15 16.85-31.35L16.85-31.35Q16.85-32.15 16.32-32.6 15.8-33.05 14.95-33.05L14.95-33.05Q13.7-33.05 12.78-32 11.85-30.95 11.45-28.95L11.45-28.95 10.6-25 14.25-25 13.9-23 10.2-23 4.45 4Q3.55 8.25 1.3 10.38-0.95 12.5-4.5 12.5L-4.5 12.5Q-6.95 12.5-8.68 10.95-10.4 9.4-10.4 7.1L-10.4 7.1Q-10.4 4.5-8.68 2.85-6.95 1.2-1.8-0.4L-1.8-0.4 4.25-28.95Q5.15-33.15 7.45-35.3 9.75-37.45 13.35-37.45ZM-2.8 4.15L-2.15 1.25Q-5.05 2.2-6.35 3.45-7.65 4.7-7.65 6.4L-7.65 6.4Q-7.65 7-7.03 7.53-6.4 8.05-5.65 8.05L-5.65 8.05Q-4.7 8.05-3.95 7.05-3.2 6.05-2.8 4.15L-2.8 4.15ZM11.65-7.7L11.65-7.7Q11.65-10.55 12.57-13.75 13.5-16.95 15.1-19.45L15.1-19.45Q16.95-22.4 19.55-23.93 22.15-25.45 25.35-25.45L25.35-25.45Q28.55-25.45 30.15-23.45 31.75-21.45 31.75-17.45L31.75-17.45Q31.85-17.4 31.97-17.38 32.1-17.35 32.3-17.35L32.3-17.35Q33.85-17.35 36-18.2 38.15-19.05 40-20.35L40-20.35 40.45-19Q39.05-17.5 36.72-16.4 34.4-15.3 31.6-14.85L31.6-14.85Q31-8.1 27.7-3.95 24.4 0.2 19.65 0.2L19.65 0.2Q15.75 0.2 13.7-1.8 11.65-3.8 11.65-7.7ZM25.75-22.4L25.75-22.4Q23.35-22.4 21.22-17.55 19.1-12.7 19.1-8.35L19.1-8.35Q19.1-6 19.62-5.15 20.15-4.3 21.65-4.3L21.65-4.3Q23.5-4.3 25.17-7.3 26.85-10.3 27.45-14.7L27.45-14.7Q26.75-14.85 26.42-15.38 26.1-15.9 26.1-16.8L26.1-16.8Q26.1-17.75 26.5-18.45 26.9-19.15 27.65-19.5L27.65-19.5Q27.55-21.1 27.12-21.75 26.7-22.4 25.75-22.4ZM43.6-19L39.6 0 32.4 0 37.7-25 44.9-25 44.25-21.9Q46.45-23.75 47.72-24.38 49-25 50.3-25L50.3-25Q51.85-25 52.8-23.93 53.75-22.85 53.75-21.25L53.75-21.25Q53.75-19.7 52.75-18.65 51.75-17.6 50.15-17.6L50.15-17.6Q49.3-17.6 48.82-18 48.35-18.4 48.15-19.65L48.15-19.65Q48-20.45 47.8-20.68 47.6-20.9 47.25-20.9L47.25-20.9Q46.4-20.9 45.65-20.55 44.9-20.2 43.6-19L43.6-19ZM76.24-2L75.84 0 68.64 0 75.44-31.8 82.84-32.8 76.84-4.75Q77.54-4.25 78.24-4 78.94-3.75 79.69-3.75L79.69-3.75Q83.74-3.75 86.52-10.43 89.29-17.1 89.29-25.75L89.29-25.75Q89.29-30.45 87.44-32.83 85.59-35.2 81.99-35.2L81.99-35.2Q76.14-35.2 72.52-31.88 68.89-28.55 68.89-23.05L68.89-23.05Q68.89-22.1 69.02-21.4 69.14-20.7 69.44-20.05L69.44-20.05Q69.54-19.85 69.57-19.78 69.59-19.7 69.59-19.65L69.59-19.65Q66.89-19.65 65.57-20.8 64.24-21.95 64.24-24.3L64.24-24.3Q64.24-27.05 66.02-29.68 67.79-32.3 70.89-34.25L70.89-34.25Q73.44-35.8 76.52-36.65 79.59-37.5 82.84-37.5L82.84-37.5Q89.24-37.5 92.72-33.68 96.19-29.85 96.19-23.1L96.19-23.1Q96.19-19.45 95.34-15.7 94.49-11.95 92.94-8.7L92.94-8.7Q90.89-4.3 88.09-1.83 85.29 0.65 82.34 0.65L82.34 0.65Q80.84 0.65 79.32-0.03 77.79-0.7 76.24-2L76.24-2ZM115.44-20.65L115.44-20.65Q115.44-16.5 112.04-13.43 108.64-10.35 103.94-10.1L103.94-10.1Q103.89-9.25 103.86-8.83 103.84-8.4 103.84-8.1L103.84-8.1Q103.84-5.8 104.61-4.85 105.39-3.9 107.44-3.9L107.44-3.9Q109.79-3.9 111.76-4.98 113.74-6.05 116.29-8.95L116.29-8.95 117.99-8.95Q115.09-4.25 111.69-1.98 108.29 0.3 104.24 0.3L104.24 0.3Q100.39 0.3 98.41-1.7 96.44-3.7 96.44-7.65L96.44-7.65Q96.44-10.5 97.34-13.7 98.24-16.9 99.74-19.4L99.74-19.4Q101.59-22.4 104.16-23.93 106.74-25.45 109.94-25.45L109.94-25.45Q112.69-25.45 114.06-24.28 115.44-23.1 115.44-20.65ZM110.34-22.8L110.34-22.8Q108.64-22.8 106.91-19.78 105.19-16.75 104.34-12.5L104.34-12.5Q107.24-12.7 109.41-15.18 111.59-17.65 111.59-20.75L111.59-20.75Q111.59-21.8 111.29-22.3 110.99-22.8 110.34-22.8ZM131.79-20.75L131.79-20.75Q130.99-20.75 130.49-21.53 129.99-22.3 129.99-23.3L129.99-23.3Q129.99-24.55 130.81-25.28 131.64-26 133.09-26L133.09-26Q134.64-26 135.44-24.85 136.24-23.7 136.24-21.65L136.24-21.65Q136.24-18.25 135.36-14.53 134.49-10.8 132.99-7.75L132.99-7.75Q130.99-3.8 128.19-1.75 125.39 0.3 121.99 0.3L121.99 0.3Q119.04 0.3 117.44-1.23 115.84-2.75 115.84-5.6L115.84-5.6Q115.84-6.15 115.91-6.78 115.99-7.4 116.09-8L116.09-8 119.69-25 126.89-25 123.29-8Q123.19-7.45 123.11-6.98 123.04-6.5 123.04-6.2L123.04-6.2Q123.04-5.4 123.46-4.98 123.89-4.55 124.74-4.55L124.74-4.55Q126.49-4.55 128.16-6.38 129.84-8.2 131.19-11.55L131.19-11.55Q132.19-13.95 132.79-16.6 133.39-19.25 133.39-21.25L133.39-21.25Q133.29-21.05 132.76-20.9 132.24-20.75 131.79-20.75ZM155.43-20.65L155.43-20.65Q155.43-16.5 152.03-13.43 148.63-10.35 143.93-10.1L143.93-10.1Q143.88-9.25 143.86-8.83 143.83-8.4 143.83-8.1L143.83-8.1Q143.83-5.8 144.61-4.85 145.38-3.9 147.43-3.9L147.43-3.9Q149.78-3.9 151.76-4.98 153.73-6.05 156.28-8.95L156.28-8.95 157.98-8.95Q155.08-4.25 151.68-1.98 148.28 0.3 144.23 0.3L144.23 0.3Q140.38 0.3 138.41-1.7 136.43-3.7 136.43-7.65L136.43-7.65Q136.43-10.5 137.33-13.7 138.23-16.9 139.73-19.4L139.73-19.4Q141.58-22.4 144.16-23.93 146.73-25.45 149.93-25.45L149.93-25.45Q152.68-25.45 154.06-24.28 155.43-23.1 155.43-20.65ZM150.33-22.8L150.33-22.8Q148.63-22.8 146.91-19.78 145.18-16.75 144.33-12.5L144.33-12.5Q147.23-12.7 149.41-15.18 151.58-17.65 151.58-20.75L151.58-20.75Q151.58-21.8 151.28-22.3 150.98-22.8 150.33-22.8ZM155.83-5.7L155.83-5.7Q155.83-6.35 155.93-7.18 156.03-8 156.23-8.95L156.23-8.95 161.58-34 168.98-35 163.23-8Q163.13-7.55 163.08-7.18 163.03-6.8 163.03-6.4L163.03-6.4Q163.03-5.4 163.51-4.98 163.98-4.55 165.08-4.55L165.08-4.55Q166.48-4.55 167.73-5.78 168.98-7 169.58-8.95L169.58-8.95 171.68-8.95Q170.08-4.4 167.38-2.05 164.68 0.3 161.18 0.3L161.18 0.3Q158.68 0.3 157.26-1.28 155.83-2.85 155.83-5.7ZM167.48-7.7L167.48-7.7Q167.48-10.55 168.4-13.75 169.33-16.95 170.93-19.45L170.93-19.45Q172.78-22.4 175.38-23.93 177.98-25.45 181.18-25.45L181.18-25.45Q184.38-25.45 185.98-23.45 187.58-21.45 187.58-17.45L187.58-17.45Q187.68-17.4 187.8-17.38 187.93-17.35 188.13-17.35L188.13-17.35Q189.68-17.35 191.83-18.2 193.98-19.05 195.83-20.35L195.83-20.35 196.28-19Q194.88-17.5 192.55-16.4 190.23-15.3 187.43-14.85L187.43-14.85Q186.83-8.1 183.53-3.95 180.23 0.2 175.48 0.2L175.48 0.2Q171.58 0.2 169.53-1.8 167.48-3.8 167.48-7.7ZM181.58-22.4L181.58-22.4Q179.18-22.4 177.05-17.55 174.93-12.7 174.93-8.35L174.93-8.35Q174.93-6 175.45-5.15 175.98-4.3 177.48-4.3L177.48-4.3Q179.33-4.3 181-7.3 182.68-10.3 183.28-14.7L183.28-14.7Q182.58-14.85 182.25-15.38 181.93-15.9 181.93-16.8L181.93-16.8Q181.93-17.75 182.33-18.45 182.73-19.15 183.48-19.5L183.48-19.5Q183.38-21.1 182.95-21.75 182.53-22.4 181.58-22.4ZM200.03-19.2L197.08-5.2Q197.28-4.65 197.78-4.35 198.28-4.05 198.98-4.05L198.98-4.05Q202.13-4.05 204.05-8.1 205.98-12.15 205.98-17.5L205.98-17.5Q205.98-19.55 205.38-20.6 204.78-21.65 203.48-21.65L203.48-21.65Q202.58-21.65 201.63-20.98 200.68-20.3 200.03-19.2L200.03-19.2ZM196.28-1.5L193.68 10.7 186.13 12.5 194.48-26.85 201.68-26.85 200.88-23.1Q202.13-24.15 203.58-24.7 205.03-25.25 206.73-25.25L206.73-25.25Q209.73-25.25 211.28-23.25 212.83-21.25 212.83-17.35L212.83-17.35Q212.83-9.7 209.55-4.7 206.28 0.3 200.53 0.3L200.53 0.3Q198.93 0.3 197.85-0.15 196.78-0.6 196.28-1.5L196.28-1.5ZM233.07-20.65L233.07-20.65Q233.07-16.5 229.67-13.43 226.27-10.35 221.57-10.1L221.57-10.1Q221.52-9.25 221.5-8.83 221.47-8.4 221.47-8.1L221.47-8.1Q221.47-5.8 222.25-4.85 223.02-3.9 225.07-3.9L225.07-3.9Q227.42-3.9 229.4-4.98 231.37-6.05 233.92-8.95L233.92-8.95 235.62-8.95Q232.72-4.25 229.32-1.98 225.92 0.3 221.87 0.3L221.87 0.3Q218.02 0.3 216.05-1.7 214.07-3.7 214.07-7.65L214.07-7.65Q214.07-10.5 214.97-13.7 215.87-16.9 217.37-19.4L217.37-19.4Q219.22-22.4 221.8-23.93 224.37-25.45 227.57-25.45L227.57-25.45Q230.32-25.45 231.7-24.28 233.07-23.1 233.07-20.65ZM227.97-22.8L227.97-22.8Q226.27-22.8 224.55-19.78 222.82-16.75 221.97-12.5L221.97-12.5Q224.87-12.7 227.05-15.18 229.22-17.65 229.22-20.75L229.22-20.75Q229.22-21.8 228.92-22.3 228.62-22.8 227.97-22.8ZM243.27-19L239.27 0 232.07 0 237.37-25 244.57-25 243.92-21.9Q246.12-23.75 247.4-24.38 248.67-25 249.97-25L249.97-25Q251.52-25 252.47-23.93 253.42-22.85 253.42-21.25L253.42-21.25Q253.42-19.7 252.42-18.65 251.42-17.6 249.82-17.6L249.82-17.6Q248.97-17.6 248.5-18 248.02-18.4 247.82-19.65L247.82-19.65Q247.67-20.45 247.47-20.68 247.27-20.9 246.92-20.9L246.92-20.9Q246.07-20.9 245.32-20.55 244.57-20.2 243.27-19L243.27-19ZM265.07-8.35L265.07-8.35Q265.07-7.75 265.02-7.3 264.97-6.85 264.87-6.45L264.87-6.45Q265.87-7.05 266.82-7.7 267.77-8.35 268.47-8.95L268.47-8.95 270.57-8.95Q269.02-7.15 267.14-5.63 265.27-4.1 262.92-2.7L262.92-2.7Q261.57-1.25 259.47-0.48 257.37 0.3 255.07 0.3L255.07 0.3Q251.72 0.3 249.74-1.53 247.77-3.35 247.77-6.1L247.77-6.1Q247.77-7.65 248.52-8.93 249.27-10.2 250.42-10.75L250.42-10.75Q252.12-13.8 253.59-17.28 255.07-20.75 256.57-25.55L256.57-25.55 263.97-26.55Q264.12-22.8 264.32-19.7 264.52-16.6 264.82-12.95L264.82-12.95Q264.97-10.85 265.02-10 265.07-9.15 265.07-8.35ZM256.87-20.15L256.87-20.15Q256.22-18.1 255.29-15.88 254.37-13.65 252.82-10.7L252.82-10.7Q253.37-10.45 253.67-10 253.97-9.55 253.97-8.95L253.97-8.95Q253.97-8 253.32-7.25 252.67-6.5 251.77-6.5L251.77-6.5Q251.27-6.5 250.92-6.68 250.57-6.85 250.42-7.15L250.42-7.15Q250.42-5.3 251.14-4.48 251.87-3.65 253.47-3.65L253.47-3.65Q255.52-3.65 256.67-4.85 257.82-6.05 257.82-8.3L257.82-8.3Q257.82-9 257.77-9.73 257.72-10.45 257.57-12.15L257.57-12.15Q257.32-14.5 257.17-16.3 257.02-18.1 256.87-20.15Z" opacity="1" transform="matrix(1,0,0,1,0,0)" fill="#000000" class="undefined-text-1" data-fill-palette-color="secondary" id="text-1"></path></svg></g></svg></g></svg></g></svg></g><g transform="matrix(1,0,0,1,170.12736516316866,0)"><svg viewBox="0 0 55.26526967366266 72.57069271828207" height="72.57069271828207" width="55.26526967366266"><g><svg xmlns="http://www.w3.org/2000/svg" xmlns:xlink="http://www.w3.org/1999/xlink" version="1.1" x="0" y="0" viewBox="18.083999633789062 8.08986759185791 63.831382751464844 83.81914520263672" enable-background="new 0 0 100 100" xml:space="preserve" height="72.57069271828207" width="55.26526967366266" class="icon-icon-0" data-fill-palette-color="accent" id="icon-0"><g fill="#f9f9f9" data-fill-palette-color="accent"><path fill="#000000" d="M75.831 81.262c-0.461 4.555-4.121 7.827-8.179 7.309l-34.53-4.418c-4.055-0.521-6.968-4.632-6.507-9.187l6.035-59.515c0.464-4.555 4.123-7.826 8.182-7.307l34.529 4.417c4.057 0.52 6.969 4.632 6.506 9.187L75.831 81.262z" data-fill-palette-color="accent"></path><path fill="#000000" d="M28.725 87.08c-4.055-0.519-6.969-4.632-6.508-9.187l6.036-59.514c0.108-1.073 0.401-2.072 0.829-2.969h-3.607c-4.083 0-7.391 3.716-7.391 8.301v59.896c0 4.586 3.308 8.302 7.391 8.302h34.754c0.866 0 1.693-0.177 2.467-0.484L28.725 87.08z" data-fill-palette-color="accent"></path></g></svg></g></svg></g><g></g></svg></g><defs></defs></svg><rect width="395.52" height="131.76821959405578" fill="none" stroke="none" visibility="hidden"></rect></g></svg></g></svg>